<?xml version="1.0" encoding="iso-8859-1"?>
<!-- Uploaded to: SVG Repo, www.svgrepo.com, Generator: SVG Repo Mixer Tools -->
<!DOCTYPE svg PUBLIC "-//W3C//DTD SVG 1.1//EN" "http://www.w3.org/Graphics/SVG/1.1/DTD/svg11.dtd">
<svg fill="#000000" version="1.1" id="Capa_1" xmlns="http://www.w3.org/2000/svg" xmlns:xlink="http://www.w3.org/1999/xlink" 
	 width="800px" height="800px" viewBox="0 0 387.333 387.333"
	 xml:space="preserve">
<g>
	<path d="M371.996,107.712c-3.06-28.152-3.06-92.412-37.332-105.264c-1.224-1.836-4.284-2.448-6.12-1.836
		C325.484,0,322.424,0,319.364,0c-23.868,1.224-47.124,25.092-61.812,41.616c-18.972,20.808-33.048,44.676-42.84,71.604
		c-2.448-1.224-5.508-1.836-9.18-1.224c-12.24,0.612-24.48,1.836-36.72,3.06C149.84,72.828,114.956,21.42,64.772,14.076
		c-44.064-6.12-48.96,56.916-52.02,88.128c-4.896,42.228-7.956,117.505,41.616,137.7c9.18,3.672,18.36,4.283,27.54,2.447
		c-8.568,23.869-11.628,47.736-12.24,73.441c0,19.584-2.448,44.676,5.508,63.035c0.612,1.225,3.06,2.447,4.284,2.447
		c4.896,0,5.508-1.836,9.792-3.672c4.896-3.672,9.792-7.344,14.688-11.016c11.016,1.225,22.032,1.836,33.048,3.061
		c9.18,3.061,20.808,12.24,29.376,17.135c3.672,1.838,7.344-1.223,6.732-4.895c-13.464-67.32-8.568-129.133,13.464-192.781
		c22.032,50.185,34.272,99.755,28.152,155.449c-0.611,4.895,5.508,6.119,8.568,3.672c13.464-12.24,26.928-24.48,39.168-37.945l0,0
		c17.748,9.182,34.884,18.361,51.408,29.377c3.06,2.447,7.956-0.611,7.956-4.896c-1.836-34.883-11.628-67.32-29.376-97.307
		c13.464,4.895,27.54,6.73,41.615,4.283C392.804,231.947,375.668,147.492,371.996,107.712z M282.032,32.436
		c7.956-6.732,20.808-18.36,31.824-20.196c3.672-0.612,7.344-0.612,9.792-0.612c-4.284,28.152-17.748,50.796-41.004,68.544
		c-18.36,14.076-40.393,21.42-61.2,31.212C237.356,82.008,256.328,54.468,282.032,32.436z M67.22,22.032
		c7.956,0.612,17.748,5.508,24.48,9.18c33.66,18.36,50.184,52.632,70.38,83.232C114.344,110.16,45.8,91.8,36.008,39.78
		C40.292,28.152,46.412,20.808,67.22,22.032z M59.876,228.889c-43.452-18.973-42.228-80.173-38.556-121.177
		c1.836-18.36,4.896-37.332,10.404-55.692c10.404,48.96,85.68,74.052,131.58,68.544c0,0,0,0,0,0.612
		c-1.224,4.284-2.448,9.792-3.06,15.3c-1.224,0-3.06,0-4.284,0c-3.06,0.612-5.508,1.224-7.956,1.224
		c-5.508,0-11.016-0.612-16.524-1.836c-4.284-1.224-7.956,5.508-3.06,7.956c6.12,2.448,12.24,3.672,19.584,3.06
		c3.06-0.612,6.732-1.224,9.792-2.448c1.224-0.612,1.836-0.612,2.448-1.224c0,4.284,0,7.956,0.612,11.628
		c-8.568,0.612-15.912,2.448-23.256,7.344c-2.448,1.836-0.612,6.12,2.448,4.284c6.732-3.672,14.076-6.732,21.42-9.18
		c0.612,2.448,1.224,4.896,3.06,7.344c0,0,0,0-0.612,0C139.436,193.392,100.88,246.637,59.876,228.889z M163.304,372.709
		c-12.24-8.568-28.764-20.809-41.616-22.033c-12.852-0.611-19.584,11.629-30.6,12.24c-25.704,1.225-4.284-107.1,0.612-121.787
		c0-0.613,0-1.225,0-1.836c31.212-11.629,58.752-47.737,75.888-69.157c1.224,0.612,1.836,1.836,3.06,2.448
		c3.06,1.836,6.732,2.448,10.404,3.672C149.228,235.008,152.288,307.836,163.304,372.709z M186.56,168.912
		c-1.836,0-3.06-0.612-4.896-0.612c-20.196-3.672-16.524-30.6-14.076-45.9v-0.612c6.732,0,12.852-1.224,19.584-1.836
		c4.896-0.612,16.524-3.672,20.196-1.836c6.732,3.06,4.284,13.464,4.284,18.972c0,5.508,1.224,12.852,0,18.36
		c-2.448,11.628-11.628,14.076-21.42,14.076C190.232,168.3,188.396,168.3,186.56,168.912z M277.748,231.336
		c18.972,28.152,29.988,59.363,34.272,93.023c-14.076-8.566-28.765-15.299-44.064-20.195c0.612-4.283-4.284-7.957-7.956-4.283
		c-10.404,11.016-21.42,21.42-32.436,31.211c3.672-53.244-6.12-107.1-36.108-151.776c0-0.612,0.612-1.224,0.612-2.448
		c8.567,0,17.136-1.224,22.032-6.12c0.611-0.612,1.224-1.224,1.836-1.836c0,0.612,0,1.836,0.611,2.448
		c13.464,22.032,35.496,44.675,60.588,58.14C277.136,230.111,277.136,230.725,277.748,231.336z M326.708,235.008
		c-14.076,0-28.151-4.283-41.004-10.404h-0.612C260,212.363,237.968,190.332,223.28,168.3c-1.224-2.448-4.284-2.448-5.508-1.224
		c1.836-3.06,2.447-6.732,2.447-10.404c6.12,1.224,12.24,4.284,16.524,7.956c2.448,2.448,6.12-1.224,3.672-3.672
		c-5.508-6.732-12.24-9.18-20.196-8.568c0-0.612,0-1.836,0-2.448c0-1.224,0-3.06,0-4.896c11.017-0.612,21.421-4.284,29.988-11.628
		c2.448-1.836-0.611-6.12-3.06-4.284c-7.956,6.12-17.137,9.792-26.929,10.404c0-7.344,0.612-15.3-1.836-21.42
		c0.612,0,0.612,0,1.225,0c29.988-9.792,58.14-16.524,82.008-38.556c18.36-16.524,31.824-39.168,33.66-64.26
		c9.792,6.12,13.464,18.972,16.523,29.376c5.509,22.032,7.345,45.288,9.181,67.932C364.652,148.716,383.624,235.619,326.708,235.008
		z"/>
</g>
</svg>